<?xml version="1.0" encoding="UTF-8" standalone="no"?>
<svg
   width="128"
   height="128"
   version="1.1"
   id="svg22"
   sodipodi:docname="icon2.svg"
   inkscape:version="1.2 (dc2aeda, 2022-05-15)"
   xmlns:inkscape="http://www.inkscape.org/namespaces/inkscape"
   xmlns:sodipodi="http://sodipodi.sourceforge.net/DTD/sodipodi-0.dtd"
   xmlns="http://www.w3.org/2000/svg"
   xmlns:svg="http://www.w3.org/2000/svg">
  <defs
     id="defs26" />
  <sodipodi:namedview
     id="namedview24"
     pagecolor="#ffffff"
     bordercolor="#666666"
     borderopacity="1.0"
     inkscape:showpageshadow="2"
     inkscape:pageopacity="0.0"
     inkscape:pagecheckerboard="0"
     inkscape:deskcolor="#d1d1d1"
     showgrid="false"
     inkscape:zoom="5.2149125"
     inkscape:cx="61.746002"
     inkscape:cy="66.25231"
     inkscape:window-width="1920"
     inkscape:window-height="1129"
     inkscape:window-x="0"
     inkscape:window-y="0"
     inkscape:window-maximized="1"
     inkscape:current-layer="svg22" />
  <g
     fill="#fff"
     transform="translate(12.322 12.322)scale(.101)"
     id="g14">
    <path
       d="M105 673v33q407 354 814 0v-33z"
       id="path4" />
    <path
       fill="#478cbf"
       d="m105 673 152 14q12 1 15 14l4 67 132 10 8-61q2-11 15-15h162q13 4 15 15l8 61 132-10 4-67q3-13 15-14l152-14V427q30-39 56-81-35-59-83-108-43 20-82 47-40-37-88-64 7-51 8-102-59-28-123-42-26 43-46 89-49-7-98 0-20-46-46-89-64 14-123 42 1 51 8 102-48 27-88 64-39-27-82-47-48 49-83 108 26 42 56 81zm0 33v39c0 276 813 276 814 0v-39l-134 12-5 69q-2 10-14 13l-162 11q-12 0-16-11l-10-65H446l-10 65q-4 11-16 11l-162-11q-12-3-14-13l-5-69z"
       id="path6" />
    <path
       d="M483 600c0 34 58 34 58 0v-86c0-34-58-34-58 0z"
       id="path8" />
    <circle
       cx="725"
       cy="526"
       r="90"
       id="circle10" />
    <circle
       cx="299"
       cy="526"
       r="90"
       id="circle12" />
  </g>
  <g
     fill="#414042"
     transform="translate(12.322 12.322)scale(.101)"
     id="g20">
    <circle
       cx="307"
       cy="532"
       r="60"
       id="circle16" />
    <circle
       cx="717"
       cy="532"
       r="60"
       id="circle18" />
  </g>
  <path
     id="path464"
     style="fill:#d5dae3;fill-opacity:1;stroke:none;stroke-width:1px;stroke-linecap:butt;stroke-linejoin:miter;stroke-opacity:1"
     d="M 104.05664,74.142578 C 98.235305,72.91009 93.410909,73.569652 90.720463,78.279148 85.251203,74.19861 81.781653,77.043525 77.8125,78.158203 73.489492,76.167667 69.269108,74.219303 63.900391,78.20922 59.44949,74.569016 52.104283,74.123759 48.466797,77.986328 43.999365,77.079937 41.308336,73.151388 34.490234,76.244141 30.962659,71.002172 26.067726,73.639974 21.542969,74.144531 16.29,78.137834 20.132301,80.22069 20.128906,83.111328 c -1.396102,3.975554 -0.180694,6.832993 3.13086,8.792969 -5.16138,3.978945 -0.198837,6.452242 1.583984,9.398433 -0.189248,4.60736 3.602624,7.09948 7.885146,7.33453 -1.444326,6.45559 4.877608,7.27149 7.544542,9.89204 2.930151,1.16514 4.123817,4.9431 10.978515,0.20312 -0.900328,5.19805 11.68461,4.91149 15.859019,5.66101 4.968974,-1.95444 9.787326,0.17626 10.820006,-6.29172 5.066902,0.89735 10.168844,2.90365 12.932072,-2.40267 2.252165,-1.48518 7.892393,-3.15935 6.997804,-10.12351 4.531546,-1.95032 5.901016,-1.15159 6.789536,-8.716155 2.08195,-3.628799 6.82919,-5.530661 3.73438,-12.513672 -0.57998,-3.606771 1.9605,-7.957658 -4.32813,-10.203125 z m -48.002789,7.697386 16.704682,0.181579 c 3.029591,2.530227 3.982764,7.501021 -1.689743,9.291495 l -14.626077,0.16676 c -2.574669,-2.58516 -6.027621,-6.364892 -0.388862,-9.639834 z"
     sodipodi:nodetypes="ccccccccccccccccccccccccc" />
</svg>
