<?xml version="1.0" encoding="UTF-8" standalone="no"?>
<svg
   width="128"
   height="128"
   version="1.1"
   id="svg22"
   sodipodi:docname="icon3.svg"
   inkscape:version="1.2 (dc2aeda, 2022-05-15)"
   xmlns:inkscape="http://www.inkscape.org/namespaces/inkscape"
   xmlns:sodipodi="http://sodipodi.sourceforge.net/DTD/sodipodi-0.dtd"
   xmlns="http://www.w3.org/2000/svg"
   xmlns:svg="http://www.w3.org/2000/svg">
  <defs
     id="defs26" />
  <sodipodi:namedview
     id="namedview24"
     pagecolor="#ffffff"
     bordercolor="#666666"
     borderopacity="1.0"
     inkscape:showpageshadow="2"
     inkscape:pageopacity="0.0"
     inkscape:pagecheckerboard="0"
     inkscape:deskcolor="#d1d1d1"
     showgrid="false"
     inkscape:zoom="5.2149125"
     inkscape:cx="60.403698"
     inkscape:cy="72.772074"
     inkscape:window-width="1920"
     inkscape:window-height="1129"
     inkscape:window-x="0"
     inkscape:window-y="0"
     inkscape:window-maximized="1"
     inkscape:current-layer="svg22" />
  <g
     fill="#fff"
     transform="translate(12.322 12.322)scale(.101)"
     id="g14">
    <path
       d="M105 673v33q407 354 814 0v-33z"
       id="path4" />
    <path
       fill="#478cbf"
       d="M 105,752.20792 257,687 c 8,0.66667 13,5.33333 15,14 l 4,67 132,-29.60396 8,-61 c 1.33333,-7.33333 6.33333,-12.33333 15,-15 h 162 c 8.66667,2.66667 13.66667,7.66667 15,15 l 8,61 L 748,768 l 4,-67 c 2,-8.66667 7,-13.33333 15,-14 l 152,65.20792 V 427 c 20,-26 38.66667,-53 56,-81 -23.33333,-39.33333 -51,-75.33333 -83,-108 -28.66667,13.33333 -56,29 -82,47 -26.66667,-24.66667 -56,-46 -88,-64 4.66667,-34 7.33333,-68 8,-102 -39.33333,-18.66667 -80.33333,-32.666667 -123,-42 -17.33333,28.66667 -32.66667,58.33333 -46,89 -32.66667,-4.66667 -65.33333,-4.66667 -98,0 -13.33333,-30.66667 -28.66667,-60.33333 -46,-89 -42.66667,9.333333 -83.66667,23.33333 -123,42 0.66667,34 3.33333,68 8,102 -32,18 -61.33333,39.33333 -88,64 -26,-18 -53.33333,-33.66667 -82,-47 -32,32.66667 -59.666667,68.66667 -83,108 17.333333,28 36,55 56,81 z m 0,33 v 39 c 131.74633,191.44468 716.96491,177.65068 814,0 v -39 L 785,718 l -5,69 c -1.33333,6.66667 -6,11 -14,13 L 604,771.39604 c -8,0 -13.33333,-3.66667 -16,-11 l -10,-65 H 446 l -10,65 c -2.66667,7.33333 -8,11 -16,11 L 258,800 c -8,-2 -12.66667,-6.33333 -14,-13 l -5,-69 z"
       id="path6"
       sodipodi:nodetypes="cccccccccccccccccccccccccccccccccccccccccccccccc" />
    <path
       d="M483 600c0 34 58 34 58 0v-86c0-34-58-34-58 0z"
       id="path8" />
    <circle
       cx="725"
       cy="526"
       id="circle10"
       r="90" />
    <circle
       cx="299"
       cy="526"
       id="circle12"
       r="90" />
  </g>
  <g
     fill="#414042"
     transform="translate(12.322 12.322)scale(.101)"
     id="g20">
    <circle
       cx="307"
       cy="532"
       r="60"
       id="circle16" />
    <circle
       cx="717"
       cy="532"
       r="60"
       id="circle18" />
  </g>
  <rect
     style="fill:#478cbf;fill-opacity:1;stroke-width:1.88976;stroke-linecap:round;stroke-linejoin:bevel;stroke-dasharray:16.1978, 16.1978"
     id="rect443"
     width="21.294804"
     height="10.383285"
     x="32.613312"
     y="53.043056"
     rx="0"
     ry="0" />
  <rect
     style="fill:#478cbf;fill-opacity:1;stroke-width:1.88976;stroke-linecap:round;stroke-linejoin:bevel;stroke-dasharray:16.1978, 16.1978"
     id="rect723"
     width="21.294804"
     height="10.383285"
     x="74.613312"
     y="53.043056"
     rx="0"
     ry="0" />
</svg>
